<svg xmlns="http://www.w3.org/2000/svg" width="2500" height="714" viewBox="0 0 2500 714">
  <g id="couche_3_montagne_avant" transform="translate(250 -540)">
    <path id="Polygone_12" data-name="Polygone 12" d="M324,0,648,594H0Z" transform="translate(-49 660)" fill="#725192"/>
    <path id="Polygone_17" data-name="Polygone 17" d="M324,0,648,576H0Z" transform="translate(-250 540)" fill="#725192"/>
    <path id="Polygone_16" data-name="Polygone 16" d="M383.5,0,767,540H0Z" transform="translate(121 540)" fill="#725192"/>
    <path id="Polygone_13" data-name="Polygone 13" d="M324,0,648,332H0Z" transform="translate(1382 748)" fill="#725192"/>
    <path id="Polygone_14" data-name="Polygone 14" d="M445.5,0,891,430H0Z" transform="translate(979 650)" fill="#725192"/>
    <path id="Polygone_15" data-name="Polygone 15" d="M324,0,648,427H0Z" transform="translate(749 707)" fill="#725192"/>
    <rect id="Rectangle_2" data-name="Rectangle 2" width="604" height="250" transform="translate(559 830)" fill="#725192"/>
    <rect id="Rectangle_3" data-name="Rectangle 3" width="604" height="250" transform="translate(1646 830)" fill="#725192"/>
    <path id="Polygone_18" data-name="Polygone 18" d="M152,0,304,159H0Z" transform="translate(1461 786)" fill="#725192"/>
    <path id="Polygone_19" data-name="Polygone 19" d="M152,0,304,159H0Z" transform="translate(1143 741)" fill="#725192"/>
    <path id="Tracé_1" data-name="Tracé 1" d="M152,0,304,159H0Z" transform="translate(1025 775)" fill="#725192"/>
    <path id="Polygone_21" data-name="Polygone 21" d="M152,0,304,224H0Z" transform="translate(228 619)" fill="#725192"/>
    <path id="Polygone_22" data-name="Polygone 22" d="M177.5,0,355,224H0Z" transform="translate(498 716)" fill="#725192"/>
    <path id="Polygone_39" data-name="Polygone 39" d="M18,0,36,92H0Z" transform="translate(110 583)" fill="#725192"/>
    <path id="Polygone_40" data-name="Polygone 40" d="M18,0,36,92H0Z" transform="translate(219 675)" fill="#725192"/>
    <path id="Polygone_44" data-name="Polygone 44" d="M18,0,36,92H0Z" transform="translate(581 619)" fill="#725192"/>
    <path id="Polygone_46" data-name="Polygone 46" d="M18,0,36,138H0Z" transform="translate(699 670)" fill="#725192"/>
    <path id="Polygone_47" data-name="Polygone 47" d="M18,0,36,138H0Z" transform="translate(784 711)" fill="#725192"/>
    <path id="Polygone_48" data-name="Polygone 48" d="M18,0,36,107H0Z" transform="translate(835 762)" fill="#725192"/>
    <path id="Polygone_49" data-name="Polygone 49" d="M18,0,36,138H0Z" transform="translate(1002 670)" fill="#725192"/>
    <path id="Polygone_51" data-name="Polygone 51" d="M18,0,36,95H0Z" transform="translate(1379 614)" fill="#725192"/>
    <path id="Polygone_52" data-name="Polygone 52" d="M18,0,36,95H0Z" transform="translate(1531 703)" fill="#725192"/>
    <path id="Polygone_53" data-name="Polygone 53" d="M18,0,36,95H0Z" transform="translate(1792 748)" fill="#725192"/>
    <path id="Polygone_54" data-name="Polygone 54" d="M18,0,36,95H0Z" transform="translate(1817 748)" fill="#725192"/>
    <path id="Polygone_55" data-name="Polygone 55" d="M18,0,36,95H0Z" transform="translate(1842 748)" fill="#725192"/>
  </g>
</svg>
