<svg xmlns="http://www.w3.org/2000/svg" width="2549" height="828" viewBox="0 0 2549 828">
  <g id="couche_2_montagne_arriere" transform="translate(468 -284)">
    <path id="Polygone_1" data-name="Polygone 1" d="M578,0l578,796H0Z" transform="translate(0 284)" fill="#3e2c7b"/>
    <path id="Polygone_4" data-name="Polygone 4" d="M289,0,578,437H0Z" transform="translate(34 522)" fill="#3e2c7b"/>
    <path id="Polygone_11" data-name="Polygone 11" d="M289,0,578,448H0Z" transform="translate(475 406)" fill="#3e2c7b"/>
    <path id="Polygone_10" data-name="Polygone 10" d="M289,0,578,420H0Z" transform="translate(-28 565)" fill="#3e2c7b"/>
    <path id="Polygone_7" data-name="Polygone 7" d="M289,0,578,494H0Z" transform="translate(749 565)" fill="#3e2c7b"/>
    <path id="Polygone_8" data-name="Polygone 8" d="M289,0,578,460H0Z" transform="translate(1417 599)" fill="#3e2c7b"/>
    <path id="Polygone_5" data-name="Polygone 5" d="M289,0,578,590H0Z" transform="translate(1503 522)" fill="#3e2c7b"/>
    <path id="Polygone_3" data-name="Polygone 3" d="M578,0l578,649H0Z" transform="translate(764 431)" fill="#3e2c7b"/>
    <path id="Polygone_6" data-name="Polygone 6" d="M578,0l578,633H0Z" transform="translate(-468 447)" fill="#3e2c7b"/>
    <path id="Polygone_24" data-name="Polygone 24" d="M18,0,36,92H0Z" transform="translate(658 360)" fill="#3e2c7b"/>
    <path id="Polygone_25" data-name="Polygone 25" d="M18,0,36,92H0Z" transform="translate(487 320)" fill="#3e2c7b"/>
    <path id="Polygone_26" data-name="Polygone 26" d="M18,0,36,92H0Z" transform="translate(398 448)" fill="#3e2c7b"/>
    <path id="Polygone_27" data-name="Polygone 27" d="M18,0,36,92H0Z" transform="translate(165 494)" fill="#3e2c7b"/>
    <path id="Polygone_28" data-name="Polygone 28" d="M18,0,36,92H0Z" transform="translate(56 418)" fill="#3e2c7b"/>
    <path id="Polygone_29" data-name="Polygone 29" d="M18,0,36,92H0Z" transform="translate(880 558)" fill="#3e2c7b"/>
    <path id="Polygone_31" data-name="Polygone 31" d="M18,0,36,92H0Z" transform="translate(979 599)" fill="#3e2c7b"/>
    <path id="Polygone_32" data-name="Polygone 32" d="M18,0,36,92H0Z" transform="translate(1078 624)" fill="#3e2c7b"/>
    <path id="Polygone_36" data-name="Polygone 36" d="M18,0,36,92H0Z" transform="translate(1417 494)" fill="#3e2c7b"/>
    <path id="Polygone_37" data-name="Polygone 37" d="M18,0,36,92H0Z" transform="translate(1602 670)" fill="#3e2c7b"/>
    <path id="Polygone_38" data-name="Polygone 38" d="M18,0,36,92H0Z" transform="translate(1844 619)" fill="#3e2c7b"/>
    <path id="Polygone_33" data-name="Polygone 33" d="M18,0,36,134H0Z" transform="translate(1191 516)" fill="#3e2c7b"/>
    <path id="Polygone_35" data-name="Polygone 35" d="M18,0,36,134H0Z" transform="translate(1234 473)" fill="#3e2c7b"/>
    <path id="Polygone_30" data-name="Polygone 30" d="M18,0,36,92H0Z" transform="translate(852 522)" fill="#3e2c7b"/>
  </g>
</svg>
