<svg width="262" height="257" viewBox="0 0 262 257" fill="none" xmlns="http://www.w3.org/2000/svg">
<path d="M50.5566 10.7846C50.5308 8.57559 48.7192 6.80577 46.5102 6.83157L27.0608 7.05875L27.3347 30.5079L50.7838 30.234L50.5566 10.7846Z" fill="#525252"/>
<path d="M73.1299 32.8996C73.1041 30.6906 71.2924 28.9208 69.0834 28.9466L49.6341 29.1737L49.908 52.6228L73.3571 52.3489L73.1299 32.8996Z" fill="#525252"/>
<path d="M95.7028 55.0146C95.677 52.8056 93.8654 51.0358 91.6564 51.0616L72.207 51.2888L72.4809 74.7379L95.93 74.464L95.7028 55.0146Z" fill="#525252"/>
<path d="M118.835 77.6759C118.809 75.4669 116.998 73.6971 114.789 73.7229L95.3393 73.9501L95.6132 97.3992L119.062 97.1253L118.835 77.6759Z" fill="#525252"/>
<path d="M141.967 100.337C141.941 98.1282 140.13 96.3583 137.921 96.3842L118.471 96.6113L118.745 120.06L142.194 119.787L141.967 100.337Z" fill="#525252"/>
<path d="M164.54 122.452C164.515 120.243 162.703 118.473 160.494 118.499L141.045 118.726L141.318 142.175L164.768 141.902L164.54 122.452Z" fill="#525252"/>
<path d="M187.101 143.462C187.075 141.253 185.263 139.483 183.054 139.509L163.605 139.736L163.879 163.185L187.328 162.911L187.101 143.462Z" fill="#525252"/>
<path d="M209.674 165.577C209.648 163.368 207.836 161.598 205.627 161.624L186.178 161.851L186.452 185.3L209.901 185.026L209.674 165.577Z" fill="#525252"/>
<path d="M232.247 187.692C232.221 185.483 230.409 183.713 228.2 183.739L208.751 183.966L209.025 207.415L232.474 207.141L232.247 187.692Z" fill="#525252"/>
<path d="M253.714 209.82C253.689 207.611 251.877 205.841 249.668 205.867L230.219 206.094L230.493 229.543L253.942 229.269L253.714 209.82Z" fill="#525252"/>
<path d="M21.5955 0.774628C9.82987 12.8184 10.0553 32.1197 22.099 43.8853L229.335 246.336C235.357 252.219 245.008 252.106 250.89 246.084C256.773 240.062 256.66 230.412 250.639 224.529L21.5955 0.774628Z" fill="#540000"/>
</svg>
