<svg width="1023" height="1000" viewBox="0 0 1023 1000" fill="none" xmlns="http://www.w3.org/2000/svg">
<path d="M476 13.8777C496.328 -3.82256 526.595 -3.82255 546.922 13.8777L596.044 56.6501C660.611 112.872 739.119 150.679 823.332 166.106L887.399 177.843C913.912 182.7 932.783 206.363 931.619 233.292L928.804 298.365C925.105 383.899 944.495 468.852 984.94 544.311L1015.71 601.718C1028.44 625.475 1021.71 654.983 999.928 670.862L947.297 709.235C878.118 759.672 823.788 827.799 790.009 906.468L764.31 966.317C753.676 991.085 726.406 1004.22 700.412 997.089L637.596 979.866C555.03 957.226 467.892 957.226 385.326 979.866L322.51 997.089C296.516 1004.22 269.247 991.085 258.612 966.317L232.913 906.468C199.134 827.799 144.804 759.672 75.6248 709.234L22.9943 670.862C1.21455 654.983 -5.52045 625.475 7.21267 601.718L37.9822 544.311C78.4267 468.852 97.8166 383.899 94.1177 298.365L91.3036 233.292C90.139 206.363 109.01 182.7 135.523 177.843L199.59 166.106C283.803 150.679 362.312 112.872 426.879 56.65L476 13.8777Z" fill="#C1A200"/>
</svg>
