<svg xmlns="http://www.w3.org/2000/svg" width="236.097" height="194.001" viewBox="0 0 236.097 194.001">
  <g id="Groupe_3" data-name="Groupe 3" transform="translate(-903.621 -58)">
    <g id="Tracé_3" data-name="Tracé 3" transform="translate(903.621 65.609)" fill="#465775">
      <path d="M 235.0970611572266 185.3920135498047 L 1.000008821487427 185.3920135498047 L 1.000008821487427 -4.050767421722412 C 2.489690780639648 -4.280548572540283 5.918517112731934 -4.774547576904297 10.77571487426758 -5.263810634613037 C 16.86850929260254 -5.877486705780029 26.51953887939453 -6.609045505523682 37.89659881591797 -6.609045505523682 C 50.29562759399414 -6.609045505523682 62.2620964050293 -5.757457733154297 73.46356964111328 -4.077898502349854 C 87.39100646972656 -1.989604592323303 100.1820983886719 1.393365979194641 111.4814529418945 5.977071762084961 C 114.9596862792969 7.38807201385498 118.154182434082 9.199395179748535 120.9762115478516 11.36074829101562 C 123.6563949584961 13.41345405578613 126.0892181396484 15.85010147094727 128.2070922851562 18.60301399230957 C 132.1198272705078 23.68886566162109 135.0778656005859 29.90948295593262 137.2502136230469 37.62030792236328 C 141.3012390136719 51.99936676025391 141.8512115478516 69.03827667236328 142.3831024169922 85.51618957519531 C 143.1593933105469 109.5671310424805 143.8926544189453 132.2842559814453 155.4483642578125 143.8951263427734 C 180.1027221679688 168.6672210693359 225.9882507324219 169.9220123291016 234.936279296875 169.9220123291016 C 234.9917602539062 169.9220123291016 235.0453491210938 169.9219665527344 235.0970611572266 169.9218597412109 L 235.0970611572266 185.3920135498047 Z" stroke="none"/>
      <path d="M 37.89657592773438 -5.609039306640625 C 26.57212829589844 -5.609039306640625 16.96531677246094 -4.881576538085938 10.90034484863281 -4.271286010742188 C 6.818817138671875 -3.860580444335938 3.75018310546875 -3.446487426757812 2 -3.1898193359375 L 2 184.3919982910156 L 234.0970764160156 184.3919982910156 L 234.0970764160156 170.9185791015625 C 223.3565368652344 170.8327331542969 178.9775085449219 168.9542388916016 154.7395935058594 144.6005554199219 C 142.9059143066406 132.7103576660156 142.1664733886719 109.8019561767578 141.3836364746094 85.5484619140625 C 140.8536682128906 69.13039398193359 140.3056945800781 52.15333557128906 136.2876892089844 37.89149475097656 C 134.1505432128906 30.30561828613281 131.2480773925781 24.19573974609375 127.4145050048828 19.2127685546875 C 125.3498229980469 16.52902221679688 122.9790725708008 14.154296875 120.3681640625 12.15464782714844 C 117.6172256469727 10.04774475097656 114.5008163452148 8.281082153320312 111.1055374145508 6.90374755859375 C 99.87922668457031 2.349685668945312 87.16471862792969 -1.012359619140625 73.31526184082031 -3.088943481445312 C 62.16268920898438 -4.76116943359375 50.24613952636719 -5.609039306640625 37.89657592773438 -5.609039306640625 M 37.89656066894531 -7.609039306640625 C 59.42071533203125 -7.609039306640625 86.95948791503906 -5.049652099609375 111.8573532104492 5.050430297851562 C 162.3495788574219 25.53311157226562 129.2708129882812 116.1749877929688 156.1571655273438 143.1897125244141 C 183.0435028076172 170.2044525146484 236.0970764160156 168.9121856689453 236.0970764160156 168.9121856689453 L 236.0970764160156 186.3919982910156 L 0 186.3919982910156 L 0 -4.90350341796875 C 0 -4.90350341796875 15.77029418945312 -7.609039306640625 37.89656066894531 -7.609039306640625 Z" stroke="none" fill="#000"/>
    </g>
    <g id="Ellipse_17" data-name="Ellipse 17" transform="translate(915.672 231.308) rotate(45)" fill="#cbcbcb" stroke="#000" stroke-width="1.5">
      <circle cx="6.5" cy="6.5" r="6.5" stroke="none"/>
      <circle cx="6.5" cy="6.5" r="5.75" fill="none"/>
    </g>
    <g id="Ellipse_18" data-name="Ellipse 18" transform="translate(915.672 62.308) rotate(45)" fill="#cbcbcb" stroke="#000" stroke-width="1.5">
      <circle cx="6.5" cy="6.5" r="6.5" stroke="none"/>
      <circle cx="6.5" cy="6.5" r="5.75" fill="none"/>
    </g>
    <g id="Ellipse_19" data-name="Ellipse 19" transform="translate(1030.862 125.692) rotate(45)" fill="#cbcbcb" stroke="#000" stroke-width="1.5">
      <circle cx="6.5" cy="6.5" r="6.5" stroke="none"/>
      <circle cx="6.5" cy="6.5" r="5.75" fill="none"/>
    </g>
    <g id="Ellipse_20" data-name="Ellipse 20" transform="translate(1089.669 231.308) rotate(45)" fill="#cbcbcb" stroke="#000" stroke-width="1.5">
      <circle cx="6.5" cy="6.5" r="6.5" stroke="none"/>
      <circle cx="6.5" cy="6.5" r="5.75" fill="none"/>
    </g>
    <rect id="Rectangle_31" data-name="Rectangle 31" width="1" height="7" transform="translate(917.793 237.672) rotate(45)"/>
    <rect id="Rectangle_33" data-name="Rectangle 33" width="1" height="7" transform="translate(917.793 68.672) rotate(45)"/>
    <rect id="Rectangle_35" data-name="Rectangle 35" width="1" height="7" transform="translate(1032.983 132.056) rotate(45)"/>
    <rect id="Rectangle_37" data-name="Rectangle 37" width="1" height="7" transform="translate(1091.791 237.672) rotate(45)"/>
    <rect id="Rectangle_32" data-name="Rectangle 32" width="1" height="7" transform="translate(918.5 242.621) rotate(135)"/>
    <rect id="Rectangle_34" data-name="Rectangle 34" width="1" height="7" transform="translate(918.5 73.621) rotate(135)"/>
    <rect id="Rectangle_36" data-name="Rectangle 36" width="1" height="7" transform="translate(1033.69 137.006) rotate(135)"/>
    <rect id="Rectangle_38" data-name="Rectangle 38" width="1" height="7" transform="translate(1092.498 242.621) rotate(135)"/>
  </g>
</svg>
