<svg xmlns="http://www.w3.org/2000/svg" width="278.999" height="184.999" viewBox="0 0 278.999 184.999">
  <g id="Groupe_4" data-name="Groupe 4" transform="translate(-1179 -58)">
    <g id="Soustraction_3" data-name="Soustraction 3" transform="translate(4924 580)" fill="#465775">
      <path d="M -3510.999755859375 -338.0007019042969 L -3689.923095703125 -338.0007019042969 L -3689.923095703125 -353.6125183105469 L -3661.77783203125 -353.6125183105469 C -3661.149169921875 -353.5955810546875 -3660.510986328125 -353.5869750976562 -3659.880859375 -353.5869750976562 C -3622.26611328125 -353.5869750976562 -3591.664306640625 -384.227783203125 -3591.664306640625 -421.8904418945312 C -3591.664306640625 -459.5531311035156 -3622.26611328125 -490.1939392089844 -3659.880859375 -490.1939392089844 C -3694.344482421875 -490.1939392089844 -3723.283203125 -464.5942993164062 -3727.560791015625 -430.5003967285156 L -3743.99951171875 -430.5003967285156 L -3743.99951171875 -477.0006103515625 C -3743.99951171875 -482.9413452148438 -3742.83642578125 -488.7034606933594 -3740.542236328125 -494.1270141601562 C -3738.326416015625 -499.3663024902344 -3735.15380859375 -504.0718688964844 -3731.112548828125 -508.1131286621094 C -3727.0712890625 -512.1541748046875 -3722.36572265625 -515.3268432617188 -3717.12646484375 -517.5428466796875 C -3711.70263671875 -519.8368530273438 -3705.9404296875 -521.0000610351562 -3700 -521.0000610351562 L -3510.999755859375 -521.0000610351562 C -3505.059326171875 -521.0000610351562 -3499.297119140625 -519.8368530273438 -3493.873291015625 -517.5428466796875 C -3488.634033203125 -515.3268432617188 -3483.928466796875 -512.1541748046875 -3479.88720703125 -508.1131286621094 C -3475.845947265625 -504.0718078613281 -3472.67333984375 -499.3662109375 -3470.457275390625 -494.1270446777344 C -3468.163330078125 -488.7033386230469 -3467.000244140625 -482.9411926269531 -3467.000244140625 -477.0006103515625 L -3467.000244140625 -382.0001831054688 C -3467.000244140625 -376.0596313476562 -3468.163330078125 -370.2974853515625 -3470.457275390625 -364.8737182617188 C -3472.67333984375 -359.6345825195312 -3475.845947265625 -354.9289855957031 -3479.88720703125 -350.8876647949219 C -3483.9287109375 -346.8464660644531 -3488.63427734375 -343.673828125 -3493.873291015625 -341.4578552246094 C -3499.297119140625 -339.1638793945312 -3505.059326171875 -338.0007019042969 -3510.999755859375 -338.0007019042969 Z" stroke="none"/>
      <path d="M -3510.999755859375 -339.0007019042969 C -3505.19384765625 -339.0007019042969 -3499.562744140625 -340.1372985839844 -3494.2626953125 -342.3788757324219 C -3489.142822265625 -344.54443359375 -3484.544189453125 -347.6451110839844 -3480.594482421875 -351.5947570800781 C -3476.64453125 -355.5445861816406 -3473.5439453125 -360.1433410644531 -3471.37841796875 -365.2632446289062 C -3469.13671875 -370.5630798339844 -3468.000244140625 -376.1941833496094 -3468.000244140625 -382.0001831054688 L -3468.000244140625 -477.0006103515625 C -3468.000244140625 -482.8066101074219 -3469.13671875 -488.4377136230469 -3471.37841796875 -493.7374877929688 C -3473.5439453125 -498.8574829101562 -3476.64453125 -503.4562377929688 -3480.59423828125 -507.406005859375 C -3484.5439453125 -511.3555908203125 -3489.142822265625 -514.4562377929688 -3494.2626953125 -516.621826171875 C -3499.562744140625 -518.8634643554688 -3505.19384765625 -520.0000610351562 -3510.999755859375 -520.0000610351562 L -3700 -520.0000610351562 C -3705.805908203125 -520.0000610351562 -3711.43701171875 -518.8634643554688 -3716.737060546875 -516.6218872070312 C -3721.85693359375 -514.4562377929688 -3726.455810546875 -511.3555908203125 -3730.4052734375 -507.406005859375 C -3734.35498046875 -503.456298828125 -3737.455810546875 -498.8575439453125 -3739.621337890625 -493.7374877929688 C -3741.863037109375 -488.4378356933594 -3742.99951171875 -482.8067626953125 -3742.99951171875 -477.0006103515625 L -3742.99951171875 -431.5003967285156 L -3728.4375 -431.5003967285156 C -3723.716796875 -465.6570129394531 -3694.5546875 -491.1939392089844 -3659.880859375 -491.1939392089844 C -3621.714599609375 -491.1939392089844 -3590.664306640625 -460.1045227050781 -3590.664306640625 -421.8904418945312 C -3590.664306640625 -383.6763610839844 -3621.714599609375 -352.5869750976562 -3659.880859375 -352.5869750976562 C -3660.51513671875 -352.5869750976562 -3661.157470703125 -352.5955810546875 -3661.790283203125 -352.6125183105469 L -3688.923095703125 -352.6125183105469 L -3688.923095703125 -339.0007019042969 L -3510.999755859375 -339.0007019042969 M -3510.999755859375 -337.0007019042969 L -3690.923095703125 -337.0007019042969 L -3690.923095703125 -354.6125183105469 L -3661.763916015625 -354.6125183105469 C -3661.140625 -354.5955810546875 -3660.50732421875 -354.5869750976562 -3659.880859375 -354.5869750976562 C -3622.817626953125 -354.5869750976562 -3592.664306640625 -384.7791748046875 -3592.664306640625 -421.8904418945312 C -3592.664306640625 -459.001708984375 -3622.817626953125 -489.1939392089844 -3659.880859375 -489.1939392089844 C -3694.134033203125 -489.1939392089844 -3722.84814453125 -463.5312805175781 -3726.672607421875 -429.5003967285156 L -3744.99951171875 -429.5003967285156 L -3744.99951171875 -477.0006103515625 C -3744.99951171875 -483.0757446289062 -3743.809814453125 -488.9689636230469 -3741.46337890625 -494.5165710449219 C -3739.197021484375 -499.8749389648438 -3735.952392578125 -504.6874084472656 -3731.819580078125 -508.8202209472656 C -3727.686767578125 -512.9529418945312 -3722.874267578125 -516.197509765625 -3717.51611328125 -518.4638671875 C -3711.96826171875 -520.810302734375 -3706.0751953125 -522.0000610351562 -3700 -522.0000610351562 L -3510.999755859375 -522.0000610351562 C -3504.924560546875 -522.0000610351562 -3499.031494140625 -520.810302734375 -3493.483642578125 -518.4638671875 C -3488.12548828125 -516.197509765625 -3483.31298828125 -512.9529418945312 -3479.18017578125 -508.8202209472656 C -3475.04736328125 -504.6873779296875 -3471.802734375 -499.8749084472656 -3469.536376953125 -494.5165710449219 C -3467.18994140625 -488.9688720703125 -3466.000244140625 -483.0756530761719 -3466.000244140625 -477.0006103515625 L -3466.000244140625 -382.0001831054688 C -3466.000244140625 -375.9251403808594 -3467.18994140625 -370.0319519042969 -3469.536376953125 -364.4841918945312 C -3471.802734375 -359.1258239746094 -3475.04736328125 -354.3134155273438 -3479.18017578125 -350.1805419921875 C -3483.31298828125 -346.0479125976562 -3488.125244140625 -342.8033447265625 -3493.483642578125 -340.536865234375 C -3499.031494140625 -338.1904296875 -3504.9248046875 -337.0007019042969 -3510.999755859375 -337.0007019042969 Z" stroke="none" fill="#000"/>
    </g>
    <g id="Ellipse_21" data-name="Ellipse 21" transform="translate(1203.669 72.115) rotate(45)" fill="#cbcbcb" stroke="#000" stroke-width="1.5">
      <circle cx="6.5" cy="6.5" r="6.5" stroke="none"/>
      <circle cx="6.5" cy="6.5" r="5.75" fill="none"/>
    </g>
    <g id="Ellipse_22" data-name="Ellipse 22" transform="translate(1301.669 222.115) rotate(45)" fill="#cbcbcb" stroke="#000" stroke-width="1.5">
      <circle cx="6.5" cy="6.5" r="6.5" stroke="none"/>
      <circle cx="6.5" cy="6.5" r="5.75" fill="none"/>
    </g>
    <g id="Ellipse_23" data-name="Ellipse 23" transform="translate(1432.021 210.094) rotate(45)" fill="#cbcbcb" stroke="#000" stroke-width="1.5">
      <circle cx="6.5" cy="6.5" r="6.5" stroke="none"/>
      <circle cx="6.5" cy="6.5" r="5.75" fill="none"/>
    </g>
    <g id="Ellipse_24" data-name="Ellipse 24" transform="translate(1432.021 72.115) rotate(45)" fill="#cbcbcb" stroke="#000" stroke-width="1.5">
      <circle cx="6.5" cy="6.5" r="6.5" stroke="none"/>
      <circle cx="6.5" cy="6.5" r="5.75" fill="none"/>
    </g>
    <rect id="Rectangle_39" data-name="Rectangle 39" width="1" height="7" transform="translate(1205.791 78.479) rotate(45)"/>
    <rect id="Rectangle_41" data-name="Rectangle 41" width="1" height="7" transform="translate(1303.791 228.479) rotate(45)"/>
    <rect id="Rectangle_43" data-name="Rectangle 43" width="1" height="7" transform="translate(1434.143 216.458) rotate(45)"/>
    <rect id="Rectangle_45" data-name="Rectangle 45" width="1" height="7" transform="translate(1434.143 78.479) rotate(45)"/>
    <rect id="Rectangle_40" data-name="Rectangle 40" width="1" height="7" transform="translate(1206.498 83.429) rotate(135)"/>
    <rect id="Rectangle_42" data-name="Rectangle 42" width="1" height="7" transform="translate(1304.498 233.429) rotate(135)"/>
    <rect id="Rectangle_44" data-name="Rectangle 44" width="1" height="7" transform="translate(1434.85 221.408) rotate(135)"/>
    <rect id="Rectangle_46" data-name="Rectangle 46" width="1" height="7" transform="translate(1434.85 83.429) rotate(135)"/>
  </g>
</svg>
