<svg xmlns="http://www.w3.org/2000/svg" width="448" height="92.001" viewBox="0 0 448 92.001">
  <g id="Groupe_6" data-name="Groupe 6" transform="translate(-411 -286)">
    <g id="Soustraction_4" data-name="Soustraction 4" transform="translate(4226 753)" fill="#465775">
      <path d="M -3368 -375.9996643066406 L -3814 -375.9996643066406 L -3814 -466.0003662109375 L -3606.130126953125 -466.0003662109375 C -3605.677001953125 -457.5685424804688 -3598.63671875 -450.84716796875 -3590.04736328125 -450.84716796875 C -3581.45849609375 -450.84716796875 -3574.418212890625 -457.5685424804688 -3573.965087890625 -466.0003662109375 L -3368 -466.0003662109375 L -3368 -375.9996643066406 Z" stroke="none"/>
      <path d="M -3369 -376.9996337890625 L -3369 -465.0003356933594 L -3573.0439453125 -465.0003356933594 C -3573.980224609375 -456.4906616210938 -3581.24853515625 -449.84716796875 -3590.04736328125 -449.84716796875 C -3598.846435546875 -449.84716796875 -3606.114990234375 -456.4906616210938 -3607.05126953125 -465.0003356933594 L -3813 -465.0003356933594 L -3813 -376.9996337890625 L -3369 -376.9996337890625 M -3367 -374.9993591308594 L -3367 -374.9996337890625 L -3815 -374.9996337890625 L -3815 -467.0003356933594 L -3605.15283203125 -467.0003356933594 C -3605.15283203125 -466.9599914550781 -3605.1533203125 -466.915771484375 -3605.1533203125 -466.8648681640625 C -3605.1533203125 -458.5841064453125 -3598.376953125 -451.84716796875 -3590.04736328125 -451.84716796875 C -3581.7177734375 -451.84716796875 -3574.94189453125 -458.5841064453125 -3574.94189453125 -466.8648681640625 C -3574.94189453125 -466.9100036621094 -3574.94189453125 -466.9554138183594 -3574.9423828125 -467.0003356933594 L -3367 -467.0003356933594 L -3367 -374.9993591308594 Z" stroke="none" fill="#000"/>
    </g>
    <g id="Ellipse_13" data-name="Ellipse 13" transform="translate(423.672 289.308) rotate(45)" fill="#cbcbcb" stroke="#000" stroke-width="1.5">
      <circle cx="6.5" cy="6.5" r="6.5" stroke="none"/>
      <circle cx="6.5" cy="6.5" r="5.75" fill="none"/>
    </g>
    <g id="Ellipse_14" data-name="Ellipse 14" transform="translate(423.672 356.308) rotate(45)" fill="#cbcbcb" stroke="#000" stroke-width="1.5">
      <circle cx="6.5" cy="6.5" r="6.5" stroke="none"/>
      <circle cx="6.5" cy="6.5" r="5.75" fill="none"/>
    </g>
    <g id="Ellipse_15" data-name="Ellipse 15" transform="translate(845.672 356.308) rotate(45)" fill="#cbcbcb" stroke="#000" stroke-width="1.5">
      <circle cx="6.5" cy="6.5" r="6.5" stroke="none"/>
      <circle cx="6.5" cy="6.5" r="5.75" fill="none"/>
    </g>
    <g id="Ellipse_16" data-name="Ellipse 16" transform="translate(845.672 289.308) rotate(45)" fill="#cbcbcb" stroke="#000" stroke-width="1.5">
      <circle cx="6.5" cy="6.5" r="6.5" stroke="none"/>
      <circle cx="6.5" cy="6.5" r="5.75" fill="none"/>
    </g>
    <rect id="Rectangle_24" data-name="Rectangle 24" width="1" height="7" transform="translate(425.793 295.672) rotate(45)"/>
    <rect id="Rectangle_26" data-name="Rectangle 26" width="1" height="7" transform="translate(425.793 362.672) rotate(45)"/>
    <rect id="Rectangle_28" data-name="Rectangle 28" width="1" height="7" transform="translate(847.793 362.672) rotate(45)"/>
    <rect id="Rectangle_30" data-name="Rectangle 30" width="1" height="7" transform="translate(847.793 295.672) rotate(45)"/>
    <rect id="Rectangle_23" data-name="Rectangle 23" width="1" height="7" transform="translate(426.5 300.621) rotate(135)"/>
    <rect id="Rectangle_25" data-name="Rectangle 25" width="1" height="7" transform="translate(426.5 367.621) rotate(135)"/>
    <rect id="Rectangle_27" data-name="Rectangle 27" width="1" height="7" transform="translate(848.5 367.621) rotate(135)"/>
    <rect id="Rectangle_29" data-name="Rectangle 29" width="1" height="7" transform="translate(848.5 300.621) rotate(135)"/>
  </g>
</svg>
