<svg xmlns="http://www.w3.org/2000/svg" width="191.001" height="194.001" viewBox="0 0 191.001 194.001">
  <g id="Groupe_1" data-name="Groupe 1" transform="translate(-79 -58)">
    <g id="Soustraction_1" data-name="Soustraction 1" transform="translate(3591 205)" fill="#465775">
      <path d="M -3321.999755859375 46.00027465820312 L -3511.00048828125 46.00027465820312 L -3511.00048828125 6.752591609954834 C -3487.60986328125 6.37087345123291 -3465.526611328125 -9.67589282989502 -3448.735107421875 -38.53037643432617 C -3431.975830078125 -67.3292236328125 -3422.4833984375 -105.4593048095703 -3421.967529296875 -146.0003204345703 L -3321.999755859375 -146.0003204345703 L -3321.999755859375 46.00027465820312 Z" stroke="none"/>
      <path d="M -3322.999755859375 45.00027847290039 L -3322.999755859375 -145.0003204345703 L -3420.98193359375 -145.0003204345703 C -3421.64111328125 -104.6596298217773 -3431.1630859375 -66.73760986328125 -3447.870849609375 -38.02740859985352 C -3464.61181640625 -9.259922027587891 -3486.612060546875 6.915130138397217 -3510.00048828125 7.72739839553833 L -3510.00048828125 45.00027847290039 L -3322.999755859375 45.00027847290039 M -3320.999755859375 47.00072479248047 L -3320.999755859375 47.00027847290039 L -3512.00048828125 47.00027847290039 L -3512.00048828125 5.759329795837402 C -3511.95263671875 5.759487628936768 -3511.90185546875 5.759566783905029 -3511.85400390625 5.759566783905029 C -3463.603515625 5.759566783905029 -3423.724609375 -62.76824951171875 -3422.95654296875 -147.0003204345703 L -3320.999755859375 -147.0003204345703 L -3320.999755859375 47.00072479248047 Z" stroke="none" fill="#000"/>
    </g>
    <g id="Ellipse_9" data-name="Ellipse 9" transform="translate(180.672 60.817) rotate(45)" fill="#cbcbcb" stroke="#000" stroke-width="1.5">
      <circle cx="6.5" cy="6.5" r="6.5" stroke="none"/>
      <circle cx="6.5" cy="6.5" r="5.75" fill="none"/>
    </g>
    <g id="Ellipse_10" data-name="Ellipse 10" transform="translate(257.672 60.817) rotate(45)" fill="#cbcbcb" stroke="#000" stroke-width="1.5">
      <circle cx="6.5" cy="6.5" r="6.5" stroke="none"/>
      <circle cx="6.5" cy="6.5" r="5.75" fill="none"/>
    </g>
    <g id="Ellipse_11" data-name="Ellipse 11" transform="translate(257.672 230.5) rotate(45)" fill="#cbcbcb" stroke="#000" stroke-width="1.5">
      <circle cx="6.5" cy="6.5" r="6.5" stroke="none"/>
      <circle cx="6.5" cy="6.5" r="5.75" fill="none"/>
    </g>
    <g id="Ellipse_12" data-name="Ellipse 12" transform="translate(91.672 230.5) rotate(45)" fill="#cbcbcb" stroke="#000" stroke-width="1.5">
      <circle cx="6.5" cy="6.5" r="6.5" stroke="none"/>
      <circle cx="6.5" cy="6.5" r="5.75" fill="none"/>
    </g>
    <rect id="Rectangle_16" data-name="Rectangle 16" width="1" height="7" transform="translate(182.793 67.181) rotate(45)"/>
    <rect id="Rectangle_18" data-name="Rectangle 18" width="1" height="7" transform="translate(259.793 67.181) rotate(45)"/>
    <rect id="Rectangle_20" data-name="Rectangle 20" width="1" height="7" transform="translate(259.793 236.864) rotate(45)"/>
    <rect id="Rectangle_22" data-name="Rectangle 22" width="1" height="7" transform="translate(93.793 236.864) rotate(45)"/>
    <rect id="Rectangle_15" data-name="Rectangle 15" width="1" height="7" transform="translate(183.5 72.131) rotate(135)"/>
    <rect id="Rectangle_17" data-name="Rectangle 17" width="1" height="7" transform="translate(260.5 72.131) rotate(135)"/>
    <rect id="Rectangle_19" data-name="Rectangle 19" width="1" height="7" transform="translate(260.5 241.814) rotate(135)"/>
    <rect id="Rectangle_21" data-name="Rectangle 21" width="1" height="7" transform="translate(94.5 241.814) rotate(135)"/>
  </g>
</svg>
