<svg xmlns="http://www.w3.org/2000/svg" width="295.399" height="187.016" viewBox="0 0 295.399 187.016">
  <g id="Groupe_5" data-name="Groupe 5" transform="translate(-1501 -56.983)">
    <path id="Tracé_5" data-name="Tracé 5" d="M3989.5,1061.939s131.713-.843,166.609,4.588,48.371,8.983,75.666,40.079,50.885,140.285,50.885,140.285H3989.5Z" transform="translate(-2487.5 -1003.891)" fill="#465775" stroke="#000" stroke-width="2"/>
    <path id="Tracé_8" data-name="Tracé 8" d="M3989.5,1061.933s119.681-.743,151.39,4.042,43.952,7.914,68.754,35.308,46.237,123.588,46.237,123.588H3989.5Z" transform="translate(-2476.111 -992.882)" fill="#465775" stroke="#000" stroke-width="2"/>
    <g id="Ellipse_25" data-name="Ellipse 25" transform="translate(1526.021 72.115) rotate(45)" fill="#cbcbcb" stroke="#000" stroke-width="1.5">
      <circle cx="6.5" cy="6.5" r="6.5" stroke="none"/>
      <circle cx="6.5" cy="6.5" r="5.75" fill="none"/>
    </g>
    <g id="Ellipse_26" data-name="Ellipse 26" transform="translate(1698.021 92.115) rotate(45)" fill="#cbcbcb" stroke="#000" stroke-width="1.5">
      <circle cx="6.5" cy="6.5" r="6.5" stroke="none"/>
      <circle cx="6.5" cy="6.5" r="5.75" fill="none"/>
    </g>
    <g id="Ellipse_27" data-name="Ellipse 27" transform="translate(1763.021 211.115) rotate(45)" fill="#cbcbcb" stroke="#000" stroke-width="1.5">
      <circle cx="6.5" cy="6.5" r="6.5" stroke="none"/>
      <circle cx="6.5" cy="6.5" r="5.75" fill="none"/>
    </g>
    <g id="Ellipse_28" data-name="Ellipse 28" transform="translate(1526.021 211.115) rotate(45)" fill="#cbcbcb" stroke="#000" stroke-width="1.5">
      <circle cx="6.5" cy="6.5" r="6.5" stroke="none"/>
      <circle cx="6.5" cy="6.5" r="5.75" fill="none"/>
    </g>
    <rect id="Rectangle_47" data-name="Rectangle 47" width="1" height="7" transform="translate(1528.143 78.479) rotate(45)"/>
    <rect id="Rectangle_49" data-name="Rectangle 49" width="1" height="7" transform="translate(1700.143 98.479) rotate(45)"/>
    <rect id="Rectangle_51" data-name="Rectangle 51" width="1" height="7" transform="translate(1765.143 217.479) rotate(45)"/>
    <rect id="Rectangle_53" data-name="Rectangle 53" width="1" height="7" transform="translate(1528.143 217.479) rotate(45)"/>
    <rect id="Rectangle_48" data-name="Rectangle 48" width="1" height="7" transform="translate(1528.85 83.429) rotate(135)"/>
    <rect id="Rectangle_50" data-name="Rectangle 50" width="1" height="7" transform="translate(1700.85 103.429) rotate(135)"/>
    <rect id="Rectangle_52" data-name="Rectangle 52" width="1" height="7" transform="translate(1765.85 222.429) rotate(135)"/>
    <rect id="Rectangle_54" data-name="Rectangle 54" width="1" height="7" transform="translate(1528.85 222.429) rotate(135)"/>
  </g>
</svg>
