<svg width="611" height="3165" viewBox="0 0 611 3165" fill="none" xmlns="http://www.w3.org/2000/svg">
<path d="M573 1C561.5 138.5 516.5 226 436.5 234.5C436.5 234.5 332.337 257.03 283 299.5C237.066 339.04 218.5 370.5 199 430C176.099 499.878 148 621 148 621L418.5 680C418.5 680 454.841 695.5 485 728.5C515.159 761.5 528 801 528 801L333 843C333 843 192.843 928.608 123.5 1005.5C65.8686 1069.41 1.5 1189 1.5 1189L302.5 1252.5C302.5 1252.5 359.243 1251.14 395 1256.5C438.156 1262.97 465 1265.5 502.5 1287C540 1308.5 556.5 1336 558.5 1378C560.5 1420 557 1458 516.5 1488.5C476 1519 391 1524 391 1524C391 1524 267.633 1549.28 209 1599C142.979 1654.98 115.935 1709.96 100 1792C119 1796.5 154.077 1798 181 1833C207.923 1868 192 1973.5 210.5 2017C229 2060.5 318 2076 349 2075.5C349 2075.5 430 2075.5 499.5 2075.5C569 2075.5 617.835 2011.64 609 1946C601.309 1888.87 557.127 1848.56 499.5 1847C462.849 1846.01 437.943 1856.63 413 1883.5C394.638 1903.28 385.5 1924.5 383.5 1946V2287C383.5 2287 421.449 2290 447.5 2332C472 2371.5 479.5 2410.5 492 2462C499.275 2491.97 508.5 2539.5 508.5 2539.5L387 2565.5C387 2565.5 349.52 2575.65 330.5 2590.5C313.886 2603.47 296 2632 296 2632L367.5 2647.5C367.5 2647.5 397.539 2662.59 412.5 2677.5C426.007 2690.96 440.5 2717.5 440.5 2717.5L387 2729C387 2729 339.434 2780.43 318.5 2819.5C296.395 2860.76 289.919 2887.26 280 2933C267.965 2988.5 269 3078 269 3078H485.5C485.5 3078 468.41 3012.33 458.5 2970C448.251 2926.22 431.5 2871.5 415.5 2857C399.5 2842.5 377.5 3164.5 377.5 3164.5" stroke="black"/>
</svg>
