<svg width="1920" height="1250" viewBox="0 0 1920 1250" fill="none" xmlns="http://www.w3.org/2000/svg">
<rect width="1920" height="1250" fill="url(#paint0_linear_9_2)"/>
<circle cx="93" cy="850" r="23" fill="#22285F"/>
<ellipse cx="1293" cy="991" rx="25" ry="20" fill="#22285F"/>
<ellipse cx="1515.51" cy="977.401" rx="13.5" ry="22.5" transform="rotate(-45.4841 1515.51 977.401)" fill="#22285F"/>
<circle cx="1655" cy="848" r="25" fill="#22285F"/>
<ellipse cx="1713.5" cy="983.5" rx="33.5" ry="39.5" fill="#22285F"/>
<ellipse cx="617.941" cy="1122.24" rx="13.5" ry="22.5" transform="rotate(30.0003 617.941 1122.24)" fill="#22285F"/>
<ellipse cx="437" cy="1035.5" rx="25" ry="12.5" fill="#22285F"/>
<ellipse cx="109" cy="138.5" rx="25" ry="12.5" fill="#22285F"/>
<path d="M910 1036L912.731 1061.41L932.627 1045.37L916.593 1065.27L942 1068L916.593 1070.73L932.627 1090.63L912.731 1074.59L910 1100L907.269 1074.59L887.373 1090.63L903.407 1070.73L878 1068L903.407 1065.27L887.373 1045.37L907.269 1061.41L910 1036Z" fill="#22285F"/>
<ellipse cx="536" cy="430" rx="25" ry="20" fill="#22285F"/>
<ellipse cx="722.5" cy="245" rx="17.5" ry="14" fill="#22285F"/>
<circle cx="218.5" cy="592.5" r="21.5" fill="#22285F"/>
<ellipse cx="616.5" cy="693" rx="21.5" ry="17" fill="#22285F"/>
<path d="M197.5 257L199.676 277.246L215.531 264.469L202.754 280.324L223 282.5L202.754 284.676L215.531 300.531L199.676 287.754L197.5 308L195.324 287.754L179.469 300.531L192.246 284.676L172 282.5L192.246 280.324L179.469 264.469L195.324 277.246L197.5 257Z" fill="#22285F"/>
<ellipse cx="113.5" cy="1111" rx="20.5" ry="24" fill="#22285F"/>
<ellipse cx="798" cy="837.5" rx="14" ry="10.5" fill="#22285F"/>
<ellipse cx="1254" cy="151.5" rx="14" ry="10.5" fill="#22285F"/>
<ellipse cx="1073.96" cy="1166.82" rx="19.5" ry="13.5" transform="rotate(91.3732 1073.96 1166.82)" fill="#22285F"/>
<ellipse cx="1793.96" cy="43.8179" rx="19.5" ry="13.5" transform="rotate(91.3732 1793.96 43.8179)" fill="#22285F"/>
<circle cx="1779.5" cy="450.5" r="17.5" fill="#22285F"/>
<path d="M1468.5 335L1470.33 352.07L1483.7 341.297L1472.93 354.665L1490 356.5L1472.93 358.335L1483.7 371.703L1470.33 360.93L1468.5 378L1466.67 360.93L1453.3 371.703L1464.07 358.335L1447 356.5L1464.07 354.665L1453.3 341.297L1466.67 352.07L1468.5 335Z" fill="#22285F"/>
<path d="M418.5 83L420.335 100.07L433.703 89.2972L422.93 102.665L440 104.5L422.93 106.335L433.703 119.703L420.335 108.93L418.5 126L416.665 108.93L403.297 119.703L414.07 106.335L397 104.5L414.07 102.665L403.297 89.2972L416.665 100.07L418.5 83Z" fill="#22285F"/>
<ellipse cx="823" cy="564" rx="25" ry="20" fill="#22285F"/>
<ellipse cx="942" cy="63" rx="25" ry="20" fill="#22285F"/>
<ellipse cx="1106" cy="282" rx="25" ry="20" fill="#22285F"/>
<ellipse cx="1541" cy="84" rx="25" ry="20" fill="#22285F"/>
<ellipse cx="1109.5" cy="585.5" rx="21.5" ry="14.5" fill="#22285F"/>
<ellipse cx="1018.61" cy="745.642" rx="24.1625" ry="24.5646" transform="rotate(48.8655 1018.61 745.642)" fill="#22285F"/>
<ellipse cx="1779.5" cy="221.5" rx="22.5" ry="26.5" transform="rotate(-90 1779.5 221.5)" fill="#22285F"/>
<defs>
<linearGradient id="paint0_linear_9_2" x1="1920" y1="1250" x2="1079.6" y2="-514.264" gradientUnits="userSpaceOnUse">
<stop stop-color="#0E0F2F" stop-opacity="0.97"/>
<stop offset="0.93" stop-color="#0E0E1C"/>
</linearGradient>
</defs>
</svg>
